<?xml version="1.0" standalone="no"?>
<!DOCTYPE svg PUBLIC "-//W3C//DTD SVG 20010904//EN"
 "http://www.w3.org/TR/2001/REC-SVG-20010904/DTD/svg10.dtd">
<svg version="1.0" xmlns="http://www.w3.org/2000/svg"
 width="595.000000pt" height="465.000000pt" viewBox="0 0 595.000000 465.000000"
 preserveAspectRatio="xMidYMid meet">

<g transform="translate(0.000000,465.000000) scale(0.100000,-0.100000)"
fill="#000000" stroke="none">
<path d="M2874 3887 c-143 -84 -271 -159 -284 -168 -23 -15 -17 -19 278 -188
l302 -173 2 -424 3 -424 275 159 275 159 0 442 0 443 -283 163 c-156 90 -289
164 -295 163 -7 0 -129 -69 -273 -152z"/>
<path d="M2812 3152 l-252 -147 2 -425 3 -425 250 -147 c138 -80 256 -147 262
-147 17 -1 524 292 517 298 -3 3 -119 71 -257 151 l-252 146 -3 422 c-1 232
-6 422 -10 422 -4 0 -121 -67 -260 -148z"/>
<path d="M3524 1535 c-24 -58 -20 -65 36 -65 28 0 50 -2 50 -4 0 -2 -18 -44
-40 -92 l-39 -89 46 -3 c25 -2 51 -1 57 1 20 8 156 254 156 283 0 2 -56 4
-126 4 l-125 0 -15 -35z"/>
<path d="M871 1383 c-7 -43 -15 -90 -18 -105 l-5 -28 111 0 c61 0 111 -3 111
-7 0 -5 -23 -140 -50 -301 -28 -162 -50 -296 -50 -298 0 -2 51 -4 114 -4 100
0 114 2 118 18 3 9 27 146 54 305 l49 287 107 0 c59 0 110 4 113 10 6 10 35
165 35 188 0 9 -74 12 -338 12 l-339 0 -12 -77z"/>
<path d="M2195 1438 c-5 -22 -135 -787 -135 -795 0 -1 52 -3 115 -3 l114 0 6
33 c3 17 13 77 23 132 l17 100 95 6 c207 14 327 108 346 270 10 87 -10 153
-61 205 -64 64 -110 74 -332 74 -181 0 -183 0 -188 -22z m345 -188 c11 -11 20
-29 20 -40 0 -34 -28 -79 -60 -95 -32 -16 -130 -21 -130 -5 0 8 12 73 26 138
4 20 10 22 64 22 47 0 64 -4 80 -20z"/>
<path d="M3069 1444 c-197 -60 -263 -271 -123 -393 21 -19 75 -51 119 -72 96
-44 112 -60 99 -97 -13 -36 -50 -54 -102 -49 -46 5 -88 37 -120 90 -9 15 -20
27 -25 27 -7 0 -142 -83 -156 -96 -2 -2 2 -18 10 -36 20 -49 86 -116 144 -146
43 -23 62 -27 140 -27 105 0 155 13 221 58 65 43 102 99 115 172 23 126 -38
216 -182 268 -124 46 -147 74 -91 117 40 32 97 22 137 -23 l30 -35 80 40 c44
22 82 42 84 44 2 2 -2 17 -9 34 -18 42 -100 114 -148 128 -52 16 -166 14 -223
-4z"/>
<path d="M3781 1088 c-35 -205 -67 -390 -71 -410 l-8 -38 282 0 282 0 13 78
c7 42 15 85 17 95 5 16 -8 17 -165 17 -136 0 -171 3 -171 13 0 8 5 39 11 70
l12 57 157 0 158 0 16 88 c9 48 16 90 16 95 0 4 -71 7 -158 7 l-159 0 10 55
10 55 171 2 170 3 16 93 16 92 -281 0 -282 0 -62 -372z"/>
<path d="M4705 1446 c-131 -42 -220 -131 -264 -266 -22 -68 -40 -252 -30 -304
29 -156 140 -242 301 -234 l63 3 3 83 3 82 -40 0 c-31 0 -49 7 -73 29 -32 28
-33 32 -33 103 1 81 28 225 52 276 24 50 68 76 128 77 84 0 125 -34 125 -106
l0 -30 98 3 97 3 3 53 c6 97 -64 192 -166 226 -55 19 -209 20 -267 2z"/>
<path d="M1690 1220 c-70 -12 -115 -35 -169 -85 -74 -69 -96 -127 -96 -252 0
-97 1 -103 30 -144 42 -60 106 -91 199 -97 41 -2 96 1 124 8 99 23 182 98 198
178 l7 32 -90 0 -89 0 -12 -33 c-14 -40 -49 -61 -99 -61 -49 0 -85 42 -81 93
l3 36 187 3 c215 3 199 -6 201 111 1 56 -3 75 -26 114 -45 77 -168 119 -287
97z m98 -137 c19 -17 26 -38 23 -70 -1 -9 -26 -13 -91 -13 -49 0 -90 2 -90 5
0 16 33 66 52 79 30 21 81 20 106 -1z"/>
<path d="M4835 1058 c-3 -7 -14 -39 -24 -70 l-20 -58 80 0 c43 0 79 -2 79 -4
0 -1 -27 -63 -60 -136 -33 -73 -60 -137 -60 -141 0 -5 35 -9 78 -9 l78 0 80
137 c66 114 144 270 144 288 0 3 -83 5 -185 5 -139 0 -187 -3 -190 -12z"/>
</g>
</svg>
